<svg width="44" height="44" viewBox="0 0 44 44" fill="none" xmlns="http://www.w3.org/2000/svg">
<rect x="0.5" y="0.5" width="43" height="43" rx="11.5" fill="#FCFCFC"/>
<rect x="0.5" y="0.5" width="43" height="43" rx="11.5" stroke="#B3B3B3"/>
<path d="M15.2499 21.9415L20.2001 16.9913C20.6556 16.5358 20.6556 15.7972 20.2001 15.3417C19.7445 14.8861 19.006 14.8861 18.5504 15.3417L12.7755 21.1165C12.3199 21.5722 12.3199 22.3108 12.7755 22.7665L18.5504 28.5413C19.006 28.9969 19.7445 28.9969 20.2001 28.5413C20.6556 28.0858 20.6556 27.3472 20.2001 26.8916L15.2499 21.9415ZM30.1667 22C30.1667 21.3557 29.6445 20.8333 29.0001 20.8333H14.4167C13.7724 20.8333 13.2501 21.3557 13.2501 22C13.2501 22.6443 13.7724 23.1667 14.4167 23.1667H29.0001C29.6445 23.1667 30.1667 22.6443 30.1667 22Z" fill="#1A1A1A"/>
<path fill-rule="evenodd" clip-rule="evenodd" d="M15.2499 21.9415L20.2001 16.9913C20.6556 16.5358 20.6556 15.7972 20.2001 15.3417C19.7445 14.8861 19.006 14.8861 18.5504 15.3417L12.7755 21.1165C12.3199 21.5722 12.3199 22.3108 12.7755 22.7665L18.5504 28.5413C19.006 28.9969 19.7445 28.9969 20.2001 28.5413C20.6556 28.0858 20.6556 27.3472 20.2001 26.8916L15.2499 21.9415ZM30.1667 22C30.1667 21.3557 29.6445 20.8333 29.0001 20.8333H14.4167C13.7724 20.8333 13.2501 21.3557 13.2501 22C13.2501 22.6443 13.7724 23.1667 14.4167 23.1667H29.0001C29.6445 23.1667 30.1667 22.6443 30.1667 22Z" fill="#1A1A1A"/>
</svg>
