<svg width="44" height="44" viewBox="0 0 44 44" fill="none" xmlns="http://www.w3.org/2000/svg">
<rect x="0.5" y="0.5" width="43" height="43" rx="11.5" fill="#FCFCFC"/>
<rect x="0.5" y="0.5" width="43" height="43" rx="11.5" stroke="#B3B3B3"/>
<path d="M27.5835 21.9415L22.6334 16.9913C22.1778 16.5358 22.1778 15.7972 22.6334 15.3417C23.089 14.8861 23.8275 14.8861 24.2831 15.3417L30.0579 21.1165C30.5136 21.5722 30.5136 22.3108 30.0579 22.7665L24.2831 28.5413C23.8275 28.9969 23.089 28.9969 22.6334 28.5413C22.1778 28.0858 22.1778 27.3472 22.6334 26.8916L27.5835 21.9415ZM12.6667 22C12.6667 21.3557 13.1891 20.8333 13.8334 20.8333H28.4167C29.061 20.8333 29.5834 21.3557 29.5834 22C29.5834 22.6443 29.061 23.1667 28.4167 23.1667H13.8334C13.1891 23.1667 12.6667 22.6443 12.6667 22Z" fill="#1A1A1A"/>
<path fill-rule="evenodd" clip-rule="evenodd" d="M27.5835 21.9415L22.6334 16.9913C22.1778 16.5358 22.1778 15.7972 22.6334 15.3417C23.089 14.8861 23.8275 14.8861 24.2831 15.3417L30.0579 21.1165C30.5136 21.5722 30.5136 22.3108 30.0579 22.7665L24.2831 28.5413C23.8275 28.9969 23.089 28.9969 22.6334 28.5413C22.1778 28.0858 22.1778 27.3472 22.6334 26.8916L27.5835 21.9415ZM12.6667 22C12.6667 21.3557 13.1891 20.8333 13.8334 20.8333H28.4167C29.061 20.8333 29.5834 21.3557 29.5834 22C29.5834 22.6443 29.061 23.1667 28.4167 23.1667H13.8334C13.1891 23.1667 12.6667 22.6443 12.6667 22Z" fill="#1A1A1A"/>
</svg>
