<svg width="45" height="44" viewBox="0 0 45 44" fill="none" xmlns="http://www.w3.org/2000/svg">
<rect x="1.25" y="0.5" width="43" height="43" rx="11.5" fill="white"/>
<rect x="1.25" y="0.5" width="43" height="43" rx="11.5" stroke="#B3B3B3"/>
<path fill-rule="evenodd" clip-rule="evenodd" d="M19.067 27.6343L21.4053 26.3235C22.2406 25.8553 23.2593 25.8553 24.0947 26.3235L26.4329 27.6343L25.905 24.9733C25.7282 24.0821 26.003 23.161 26.6394 22.5124L28.5013 20.6144L26.0248 20.2989C25.084 20.179 24.2714 19.5829 23.8746 18.7215L22.75 16.2801L21.6253 18.7215C21.2285 19.5829 20.4159 20.179 19.4751 20.2989L16.9986 20.6144L18.8605 22.5124C19.4968 23.161 19.7717 24.0821 19.5949 24.9733L19.067 27.6343ZM17.6801 30.7045C17.1217 31.0175 16.4531 30.5322 16.5777 29.9043L17.6331 24.5841C17.6813 24.3411 17.6064 24.0899 17.4328 23.913L14.5081 20.9317L13.8078 20.2178C13.3736 19.7752 13.6334 19.0269 14.2484 18.9486L15.2404 18.8222L19.2224 18.3149C19.4789 18.2822 19.7006 18.1197 19.8088 17.8847L22.0688 12.9787C22.3367 12.3971 23.1632 12.3971 23.4312 12.9787L25.6911 17.8847C25.7994 18.1197 26.021 18.2822 26.2776 18.3149L30.2595 18.8222L31.2515 18.9486C31.8666 19.0269 32.1262 19.7752 31.6921 20.2178L30.9918 20.9316L28.0671 23.913C27.8936 24.0899 27.8186 24.3411 27.8668 24.5841L28.9222 29.9043C29.0468 30.5322 28.3782 31.0175 27.8198 30.7045L23.1167 28.0681C22.8889 27.9404 22.611 27.9404 22.3832 28.0681L17.6801 30.7045Z" fill="#1A1A1A"/>
</svg>
