<svg width="45" height="44" viewBox="0 0 45 44" fill="none" xmlns="http://www.w3.org/2000/svg">
<rect x="0.75" y="0.5" width="43" height="43" rx="11.5" fill="white"/>
<rect x="0.75" y="0.5" width="43" height="43" rx="11.5" stroke="#B3B3B3"/>
<path fill-rule="evenodd" clip-rule="evenodd" d="M31.1818 18.725C32.1582 17.7487 32.1581 16.1656 31.1816 15.1893L29.0541 13.0622C28.0772 12.0855 26.4934 12.0862 25.5174 13.0637L19.25 19.3406V13.5C19.25 12.1193 18.1307 11 16.75 11H13.75C12.3693 11 11.25 12.1193 11.25 13.5V29C11.25 31.2091 13.0409 33 15.25 33H29.75C31.1307 33 32.25 31.8807 32.25 30.5V27.5C32.25 26.1193 31.1307 25 29.75 25H24.9069L31.1818 18.725ZM19.25 22.1711V27.8284L29.405 17.6734C29.793 17.2855 29.7959 16.6574 29.4115 16.2658L28.0101 14.8383C27.6207 14.4416 26.9825 14.4386 26.5894 14.8317L19.25 22.1711ZM29.25 31H18.9068L22.9069 27H29.25C29.8023 27 30.25 27.4477 30.25 28V30C30.25 30.5523 29.8023 31 29.25 31ZM15.2499 29.5C16.0783 29.5 16.7499 28.8284 16.7499 28C16.7499 27.1715 16.0783 26.5 15.2499 26.5C14.4215 26.5 13.7499 27.1715 13.7499 28C13.7499 28.8284 14.4215 29.5 15.2499 29.5Z" fill="#1A1A1A"/>
</svg>
