<svg width="45" height="44" viewBox="0 0 45 44" fill="none" xmlns="http://www.w3.org/2000/svg">
<rect x="0.75" y="0.5" width="43" height="43" rx="11.5" fill="white"/>
<rect x="0.75" y="0.5" width="43" height="43" rx="11.5" stroke="#B3B3B3"/>
<path fill-rule="evenodd" clip-rule="evenodd" d="M14.75 32C13.3693 32 12.25 30.8807 12.25 29.5V14.5C12.25 13.1193 13.3693 12 14.75 12H29.75C31.1307 12 32.25 13.1193 32.25 14.5V29.5C32.25 30.8807 31.1307 32 29.75 32H14.75ZM14.25 14.5C14.25 14.2239 14.4739 14 14.75 14H29.75C30.0261 14 30.25 14.2239 30.25 14.5V17.5C30.25 17.7761 30.0261 18 29.75 18H14.75C14.4739 18 14.25 17.7761 14.25 17.5V14.5ZM14.25 20.5C14.25 20.2239 14.4739 20 14.75 20H23.75C24.0261 20 24.25 20.2239 24.25 20.5V29.5C24.25 29.7761 24.0261 30 23.75 30H14.75C14.4739 30 14.25 29.7761 14.25 29.5V20.5ZM29.75 30C30.0261 30 30.25 29.7761 30.25 29.5V20.5C30.25 20.2239 30.0261 20 29.75 20H26.75C26.4739 20 26.25 20.2239 26.25 20.5V29.5C26.25 29.7761 26.4739 30 26.75 30H29.75Z" fill="#1A1A1A"/>
</svg>
